  0
SECTION
  2
HEADER
  9
$ACADVER
  1
AC1009
  9
$EXTMIN
 10
0
 20
0
  9
$EXTMAX
 10
410
 20
434.982
  0
ENDSEC
  0
SECTION
  2
TABLES
  0
TABLE
  2
LAYER
 70
 1
  0
LAYER
  2
Design
 70
64
 62
7
  6
CONTINUOUS
  0
ENDTAB
  0
ENDSEC
  0
SECTION
  2
BLOCKS
  0
ENDSEC
  0
SECTION
  2
ENTITIES
  0
ARC
  8
Design
  6
CONTINUOUS
 62
1
 10
221.828857789
 20
165.132323992
 40
269.849730279
 50
89.963662269
 51
97.458327063
  0
ARC
  8
Design
  6
CONTINUOUS
 62
1
 10
216.394569280
 20
203.945139106
 40
230.660157410
 50
97.371334558
 51
105.694279089
  0
ARC
  8
Design
  6
CONTINUOUS
 62
1
 10
199.035222008
 20
264.296101917
 40
167.863820877
 50
105.562196170
 51
115.854099224
  0
ARC
  8
Design
  6
CONTINUOUS
 62
1
 10
170.922011304
 20
321.362996230
 40
104.250082370
 50
115.626839901
 51
129.778201001
  0
ARC
  8
Design
  6
CONTINUOUS
 62
1
 10
141.187936080
 20
356.607336622
 40
58.140259514
 50
129.481079503
 51
150.402544345
  0
ARC
  8
Design
  6
CONTINUOUS
 62
1
 10
122.064827843
 20
367.634136917
 40
36.066505460
 50
150.629754033
 51
179.447371036
  0
ARC
  8
Design
  6
CONTINUOUS
 62
1
 10
122.065031670
 20
368.329917551
 40
36.066709802
 50
-179.447287635
 51
-150.629837435
  0
ARC
  8
Design
  6
CONTINUOUS
 62
1
 10
141.188516677
 20
379.357151562
 40
58.141005470
 50
-150.402408622
 51
-129.481215227
  0
ARC
  8
Design
  6
CONTINUOUS
 62
1
 10
170.922995132
 20
414.602536090
 40
104.251889469
 50
-129.778077724
 51
-115.626963178
  0
ARC
  8
Design
  6
CONTINUOUS
 62
1
 10
199.033633325
 20
471.663695565
 40
167.859346205
 50
-115.854236772
 51
-105.562058623
  0
ARC
  8
Design
  6
CONTINUOUS
 62
1
 10
216.392592808
 20
532.009174616
 40
230.650297606
 50
-105.694457297
 51
-97.371156350
  0
ARC
  8
Design
  6
CONTINUOUS
 62
1
 10
221.828451081
 20
570.825405438
 40
269.843459968
 50
-97.458414264
 51
-89.963575068
  0
ARC
  8
Design
  6
CONTINUOUS
 62
1
 10
222.171232588
 20
570.830282578
 40
269.848336906
 50
-90.036357109
 51
-82.541653559
  0
ARC
  8
Design
  6
CONTINUOUS
 62
1
 10
227.606035273
 20
532.015898104
 40
230.657141543
 50
-82.628719950
 51
-74.305666403
  0
ARC
  8
Design
  6
CONTINUOUS
 62
1
 10
244.963513092
 20
471.664369294
 40
167.860760820
 50
-74.437064768
 51
-64.145294157
  0
ARC
  8
Design
  6
CONTINUOUS
 62
1
 10
273.080006274
 20
414.601110616
 40
104.248873615
 50
-64.374680831
 51
-50.222688769
  0
ARC
  8
Design
  6
CONTINUOUS
 62
1
 10
302.811462197
 20
379.357169326
 40
58.141032612
 50
-50.518779835
 51
-29.597596317
  0
ARC
  8
Design
  6
CONTINUOUS
 62
1
 10
321.934725729
 20
368.329982381
 40
36.066953017
 50
-29.370063300
 51
-0.552811631
  0
ARC
  8
Design
  6
CONTINUOUS
 62
1
 10
321.935214882
 20
367.634148334
 40
36.066462626
 50
0.552611482
 51
29.370263449
  0
ARC
  8
Design
  6
CONTINUOUS
 62
1
 10
302.810515262
 20
356.608322288
 40
58.141119298
 50
29.595857297
 51
50.516364358
  0
ARC
  8
Design
  6
CONTINUOUS
 62
1
 10
273.081587196
 20
321.363794218
 40
104.247806540
 50
50.222615969
 51
64.374753631
  0
ARC
  8
Design
  6
CONTINUOUS
 62
1
 10
244.964449568
 20
264.295233140
 40
167.864745915
 50
64.145929209
 51
74.437775396
  0
ARC
  8
Design
  6
CONTINUOUS
 62
1
 10
227.604102731
 20
203.943052755
 40
230.662525207
 50
74.305543528
 51
82.628158447
  0
ARC
  8
Design
  6
CONTINUOUS
 62
1
 10
222.171643832
 20
165.124715018
 40
269.857339570
 50
82.541777720
 51
90.036443210
  0
ARC
  8
Design
  6
CONTINUOUS
 62
1
 10
392.716955101
 20
344.068000632
 40
4.187576046
 50
39.418011074
 51
86.124332593
  0
ARC
  8
Design
  6
CONTINUOUS
 62
1
 10
383.377741582
 20
335.585876060
 40
16.799899327
 50
23.244309342
 51
41.541787947
  0
ARC
  8
Design
  6
CONTINUOUS
 62
1
 10
350.348507822
 20
320.372379192
 40
53.160584102
 50
15.802289327
 51
24.261309226
  0
ARC
  8
Design
  6
CONTINUOUS
 62
1
 10
285.841118942
 20
301.479398997
 40
120.376521958
 50
11.195315488
 51
16.093771688
  0
ARC
  8
Design
  6
CONTINUOUS
 62
1
 10
191.771389497
 20
282.433353917
 40
216.354477113
 50
7.994898234
 51
11.306433009
  0
ARC
  8
Design
  6
CONTINUOUS
 62
1
 10
79.920835571
 20
266.482854306
 40
329.336455354
 50
5.534545061
 51
8.036433030
  0
ARC
  8
Design
  6
CONTINUOUS
 62
1
 10
-31.380269884
 20
255.470423936
 40
441.180862374
 50
3.505741689
 51
5.563968137
  0
ARC
  8
Design
  6
CONTINUOUS
 62
1
 10
-120.766181511
 20
249.879970350
 40
530.741364456
 50
1.698480069
 51
3.518067032
  0
ARC
  8
Design
  6
CONTINUOUS
 62
1
 10
-170.711252244
 20
248.302515486
 40
580.711254994
 50
-0.005576091
 51
1.707991703
  0
ARC
  8
Design
  6
CONTINUOUS
 62
1
 10
-170.711247483
 20
248.190481217
 40
580.711250137
 50
-1.707991392
 51
0.005477752
  0
ARC
  8
Design
  6
CONTINUOUS
 62
1
 10
-120.649568994
 20
246.605783520
 40
530.624588412
 50
-3.518166520
 51
-1.698071201
  0
ARC
  8
Design
  6
CONTINUOUS
 62
1
 10
-31.199751359
 20
241.007258447
 40
440.999806168
 50
-5.564390694
 51
-3.505319133
  0
ARC
  8
Design
  6
CONTINUOUS
 62
1
 10
79.915262054
 20
230.013033567
 40
329.342377875
 50
-8.036794944
 51
-5.535124766
  0
ARC
  8
Design
  6
CONTINUOUS
 62
1
 10
191.849776305
 20
214.046316637
 40
216.274998277
 50
-11.307041656
 51
-7.994289587
  0
ARC
  8
Design
  6
CONTINUOUS
 62
1
 10
285.833308468
 20
195.015496984
 40
120.384551920
 50
-16.093608219
 51
-11.195478958
  0
ARC
  8
Design
  6
CONTINUOUS
 62
1
 10
350.343847546
 20
176.122319939
 40
53.165530959
 50
-24.260914970
 51
-15.802683584
  0
ARC
  8
Design
  6
CONTINUOUS
 62
1
 10
383.377476335
 20
160.907292226
 40
16.800209459
 50
-41.541617611
 51
-23.244479678
  0
ARC
  8
Design
  6
CONTINUOUS
 62
1
 10
392.715843775
 20
152.424408668
 40
4.188059665
 50
-86.109542071
 51
-39.402114067
  0
ARC
  8
Design
  6
CONTINUOUS
 62
1
 10
393.284150015
 20
152.424396607
 40
4.188047211
 50
-140.597959503
 51
-93.890384358
  0
ARC
  8
Design
  6
CONTINUOUS
 62
1
 10
402.623489151
 20
160.907904777
 40
16.801338323
 50
-156.754900362
 51
-138.459002349
  0
ARC
  8
Design
  6
CONTINUOUS
 62
1
 10
435.661928320
 20
176.124425813
 40
53.171662012
 50
-164.196827883
 51
-155.739573563
  0
ARC
  8
Design
  6
CONTINUOUS
 62
1
 10
500.180384462
 20
195.018820923
 40
120.398629647
 50
-168.804234509
 51
-163.906678315
  0
ARC
  8
Design
  6
CONTINUOUS
 62
1
 10
594.221220042
 20
214.058389357
 40
216.346983693
 50
-172.005159131
 51
-168.693509626
  0
ARC
  8
Design
  6
CONTINUOUS
 62
1
 10
706.089227639
 20
230.013567815
 40
329.346898165
 50
-174.464858063
 51
-171.963222227
  0
ARC
  8
Design
  6
CONTINUOUS
 62
1
 10
817.292611029
 20
241.014623504
 40
441.092942421
 50
-176.494463459
 51
-174.435826715
  0
ARC
  8
Design
  6
CONTINUOUS
 62
1
 10
906.649542701
 20
246.605782323
 40
530.624562096
 50
-178.301928844
 51
-176.481833435
  0
ARC
  8
Design
  6
CONTINUOUS
 62
1
 10
956.711248843
 20
248.190481237
 40
580.711251497
 50
-180.005477750
 51
-178.292008610
  0
ARC
  8
Design
  6
CONTINUOUS
 62
1
 10
956.711250884
 20
248.302515507
 40
580.711253634
 50
-181.707991705
 51
-179.994423907
  0
ARC
  8
Design
  6
CONTINUOUS
 62
1
 10
906.643969007
 20
249.885537671
 40
530.619040636
 50
176.481723215
 51
178.301729684
  0
ARC
  8
Design
  6
CONTINUOUS
 62
1
 10
817.287907201
 20
255.477749574
 40
441.088224582
 50
174.435815704
 51
176.494474469
  0
ARC
  8
Design
  6
CONTINUOUS
 62
1
 10
706.094143468
 20
266.481072011
 40
329.351536459
 50
171.963624260
 51
174.465397648
  0
ARC
  8
Design
  6
CONTINUOUS
 62
1
 10
594.233452822
 20
282.432530495
 40
216.359386893
 50
168.693604575
 51
172.005064182
  0
ARC
  8
Design
  6
CONTINUOUS
 62
1
 10
500.185746190
 20
301.472877525
 40
120.404142051
 50
163.906790495
 51
168.804122329
  0
ARC
  8
Design
  6
CONTINUOUS
 62
1
 10
435.658569019
 20
320.369798984
 40
53.168096130
 50
155.739289441
 51
164.197112005
  0
ARC
  8
Design
  6
CONTINUOUS
 62
1
 10
402.621780178
 20
335.586179479
 40
16.799340161
 50
138.457904922
 51
156.755997789
  0
ARC
  8
Design
  6
CONTINUOUS
 62
1
 10
393.283100951
 20
344.067891701
 40
4.187688516
 50
93.876331820
 51
140.581324513
  0
ARC
  8
Design
  6
CONTINUOUS
 62
1
 10
149.980525479
 20
86.076084484
 40
10.000179905
 50
-35.141527790
 51
44.997735275
  0
LINE
  8
Design
  6
CONTINUOUS
 62
1
 10
158.158
 20
80.32
 11
133.442
 21
45.209
  0
ARC
  8
Design
  6
CONTINUOUS
 62
1
 10
141.618670947
 20
39.452726965
 40
9.999631345
 50
144.854938533
 51
250.002465810
  0
LINE
  8
Design
  6
CONTINUOUS
 62
1
 10
138.199
 20
30.056
 11
176.341
 21
16.173
  0
ARC
  8
Design
  6
CONTINUOUS
 62
1
 10
179.760817454
 20
25.569801318
 40
9.999751318
 50
-109.998177330
 51
-40.000636300
  0
LINE
  8
Design
  6
CONTINUOUS
 62
1
 10
187.421
 20
19.142
 11
223.208
 21
61.79
  0
ARC
  8
Design
  6
CONTINUOUS
 62
1
 10
230.868213938
 20
55.362480102
 40
9.999594473
 50
84.998481675
 51
140.000714541
  0
LINE
  8
Design
  6
CONTINUOUS
 62
1
 10
231.74
 20
65.324
 11
317.299
 21
57.839
  0
ARC
  8
Design
  6
CONTINUOUS
 62
1
 10
318.170819266
 20
67.800957999
 40
10.000033800
 50
-95.001489008
 51
24.999020739
  0
LINE
  8
Design
  6
CONTINUOUS
 62
1
 10
327.234
 20
72.027
 11
305.977
 21
117.611
  0
ARC
  8
Design
  6
CONTINUOUS
 62
1
 10
296.914053923
 20
113.385357353
 40
9.999652363
 50
24.997515105
 51
79.996947383
  0
LINE
  8
Design
  6
CONTINUOUS
 62
1
 10
298.651
 20
123.233
 11
222.802
 21
136.608
  0
ARC
  8
Design
  6
CONTINUOUS
 62
1
 10
224.537746987
 20
146.455959065
 40
9.999755764
 50
-184.997151778
 51
-99.995971693
  0
LINE
  8
Design
  6
CONTINUOUS
 62
1
 10
214.576
 20
147.327
 11
220.963
 21
220.327
  0
ARC
  8
Design
  6
CONTINUOUS
 62
1
 10
211.000820230
 20
221.198751208
 40
10.000248794
 50
-5.000989784
 51
89.998970020
  0
LINE
  8
Design
  6
CONTINUOUS
 62
1
 10
211.001
 20
231.199
 11
138.12
 21
231.199
  0
ARC
  8
Design
  6
CONTINUOUS
 62
1
 10
138.120065248
 20
221.198981474
 40
10.000018526
 50
90.000373844
 51
145.005290922
  0
LINE
  8
Design
  6
CONTINUOUS
 62
1
 10
129.928
 20
226.934
 11
90.813
 21
171.072
  0
ARC
  8
Design
  6
CONTINUOUS
 62
1
 10
99.004444370
 20
165.335886405
 40
10.000138001
 50
144.998110943
 51
224.997739482
  0
LINE
  8
Design
  6
CONTINUOUS
 62
1
 10
91.933
 20
158.265
 11
157.052
 21
93.147
  0
ARC
  8
Design
  6
CONTINUOUS
 62
1
 10
2.999938224
 20
17.376459197
 40
2.999938259
 50
-179.991229800
 51
-24.718580426
  0
LINE
  8
Design
  6
CONTINUOUS
 62
1
 10
0
 20
17.376
 11
0
 21
86.309
  0
ARC
  8
Design
  6
CONTINUOUS
 62
1
 10
9.999950307
 20
86.308868634
 40
9.999950308
 50
114.998664124
 51
179.999247324
  0
LINE
  8
Design
  6
CONTINUOUS
 62
1
 10
5.774
 20
95.372
 11
59.395
 21
120.376
  0
ARC
  8
Design
  6
CONTINUOUS
 62
1
 10
63.621534680
 20
111.312964578
 40
10.000110322
 50
35.001453319
 51
115.001930940
  0
LINE
  8
Design
  6
CONTINUOUS
 62
1
 10
71.813
 20
117.049
 11
89.254
 21
92.141
  0
ARC
  8
Design
  6
CONTINUOUS
 62
1
 10
81.062031003
 20
86.405698073
 40
10.000102212
 50
-30.004280346
 51
34.996355534
  0
LINE
  8
Design
  6
CONTINUOUS
 62
1
 10
89.722
 20
81.405
 11
71.35
 21
49.583
  0
ARC
  8
Design
  6
CONTINUOUS
 62
1
 10
80.009834880
 20
44.582321804
 40
9.999976129
 50
149.995434008
 51
240.001013456
  0
LINE
  8
Design
  6
CONTINUOUS
 62
1
 10
75.01
 20
35.922
 11
87.556
 21
28.679
  0
ARC
  8
Design
  6
CONTINUOUS
 62
1
 10
82.555755269
 20
20.019010741
 40
9.999893066
 50
-80.001271102
 51
59.998027098
  0
LINE
  8
Design
  6
CONTINUOUS
 62
1
 10
84.292
 20
10.171
 11
26.87
 21
0.046
  0
ARC
  8
Design
  6
CONTINUOUS
 62
1
 10
26.349511942
 20
3.000008136
 40
2.999511942
 50
-179.999844582
 51
-80.007210023
  0
LINE
  8
Design
  6
CONTINUOUS
 62
1
 10
23.35
 20
3
 11
23.35
 21
40.728
  0
ARC
  8
Design
  6
CONTINUOUS
 62
1
 10
20.349672823
 20
40.727938266
 40
3.000327177
 50
0.001178895
 51
155.293193751
  0
LINE
  8
Design
  6
CONTINUOUS
 62
1
 10
17.624
 20
41.982
 11
5.725
 21
16.122
  0
ENDSEC
  0
EOF
