  0
SECTION
  2
HEADER
  9
$ACADVER
  1
AC1009
  9
$EXTMIN
 10
0
 20
0
  9
$EXTMAX
 10
328.171
 20
231.199
  0
ENDSEC
  0
SECTION
  2
TABLES
  0
TABLE
  2
LAYER
 70
 1
  0
LAYER
  2
Design
 70
64
 62
7
  6
CONTINUOUS
  0
ENDTAB
  0
ENDSEC
  0
SECTION
  2
BLOCKS
  0
ENDSEC
  0
SECTION
  2
ENTITIES
  0
ARC
  8
Design
  6
CONTINUOUS
 62
1
 10
2.999938224
 20
17.376459197
 40
2.999938259
 50
-179.991229800
 51
-24.718580426
  0
LINE
  8
Design
  6
CONTINUOUS
 62
1
 10
0
 20
17.376
 11
0
 21
86.309
  0
ARC
  8
Design
  6
CONTINUOUS
 62
1
 10
9.999950307
 20
86.308868634
 40
9.999950308
 50
114.998664124
 51
179.999247324
  0
LINE
  8
Design
  6
CONTINUOUS
 62
1
 10
5.774
 20
95.372
 11
59.395
 21
120.376
  0
ARC
  8
Design
  6
CONTINUOUS
 62
1
 10
63.621534680
 20
111.312964578
 40
10.000110322
 50
35.001453319
 51
115.001930940
  0
LINE
  8
Design
  6
CONTINUOUS
 62
1
 10
71.813
 20
117.049
 11
89.254
 21
92.141
  0
ARC
  8
Design
  6
CONTINUOUS
 62
1
 10
81.062031003
 20
86.405698073
 40
10.000102212
 50
-30.004280346
 51
34.996355534
  0
LINE
  8
Design
  6
CONTINUOUS
 62
1
 10
89.722
 20
81.405
 11
71.35
 21
49.583
  0
ARC
  8
Design
  6
CONTINUOUS
 62
1
 10
80.009834880
 20
44.582321804
 40
9.999976129
 50
149.995434008
 51
240.001013456
  0
LINE
  8
Design
  6
CONTINUOUS
 62
1
 10
75.01
 20
35.922
 11
87.556
 21
28.679
  0
ARC
  8
Design
  6
CONTINUOUS
 62
1
 10
82.555755269
 20
20.019010741
 40
9.999893066
 50
-80.001271102
 51
59.998027098
  0
LINE
  8
Design
  6
CONTINUOUS
 62
1
 10
84.292
 20
10.171
 11
26.87
 21
0.046
  0
ARC
  8
Design
  6
CONTINUOUS
 62
1
 10
26.349511942
 20
3.000008136
 40
2.999511942
 50
-179.999844582
 51
-80.007210023
  0
LINE
  8
Design
  6
CONTINUOUS
 62
1
 10
23.35
 20
3
 11
23.35
 21
40.728
  0
ARC
  8
Design
  6
CONTINUOUS
 62
1
 10
20.349672823
 20
40.727938266
 40
3.000327177
 50
0.001178895
 51
155.293193751
  0
LINE
  8
Design
  6
CONTINUOUS
 62
1
 10
17.624
 20
41.982
 11
5.725
 21
16.122
  0
LINE
  8
Design
  6
CONTINUOUS
 62
1
 10
157.052
 20
93.147
 11
91.933
 21
158.265
  0
ARC
  8
Design
  6
CONTINUOUS
 62
1
 10
99.004444370
 20
165.335886405
 40
10.000138001
 50
-215.001889057
 51
-135.002260518
  0
LINE
  8
Design
  6
CONTINUOUS
 62
1
 10
90.813
 20
171.072
 11
129.928
 21
226.934
  0
ARC
  8
Design
  6
CONTINUOUS
 62
1
 10
138.120065248
 20
221.198981474
 40
10.000018526
 50
90.000373844
 51
145.005290922
  0
LINE
  8
Design
  6
CONTINUOUS
 62
1
 10
138.12
 20
231.199
 11
211.001
 21
231.199
  0
ARC
  8
Design
  6
CONTINUOUS
 62
1
 10
211.000820230
 20
221.198751208
 40
10.000248794
 50
-5.000989784
 51
89.998970020
  0
LINE
  8
Design
  6
CONTINUOUS
 62
1
 10
220.963
 20
220.327
 11
214.576
 21
147.327
  0
ARC
  8
Design
  6
CONTINUOUS
 62
1
 10
224.537746987
 20
146.455959065
 40
9.999755764
 50
175.002848222
 51
260.004028307
  0
LINE
  8
Design
  6
CONTINUOUS
 62
1
 10
222.802
 20
136.608
 11
298.651
 21
123.233
  0
ARC
  8
Design
  6
CONTINUOUS
 62
1
 10
296.914053923
 20
113.385357353
 40
9.999652363
 50
24.997515105
 51
79.996947383
  0
LINE
  8
Design
  6
CONTINUOUS
 62
1
 10
305.977
 20
117.611
 11
327.234
 21
72.027
  0
ARC
  8
Design
  6
CONTINUOUS
 62
1
 10
318.170819266
 20
67.800957999
 40
10.000033800
 50
-95.001489008
 51
24.999020739
  0
LINE
  8
Design
  6
CONTINUOUS
 62
1
 10
317.299
 20
57.839
 11
231.74
 21
65.324
  0
ARC
  8
Design
  6
CONTINUOUS
 62
1
 10
230.868213938
 20
55.362480102
 40
9.999594473
 50
84.998481675
 51
140.000714541
  0
LINE
  8
Design
  6
CONTINUOUS
 62
1
 10
223.208
 20
61.79
 11
187.421
 21
19.142
  0
ARC
  8
Design
  6
CONTINUOUS
 62
1
 10
179.760817454
 20
25.569801318
 40
9.999751318
 50
-109.998177330
 51
-40.000636300
  0
LINE
  8
Design
  6
CONTINUOUS
 62
1
 10
176.341
 20
16.173
 11
138.199
 21
30.056
  0
ARC
  8
Design
  6
CONTINUOUS
 62
1
 10
141.618670947
 20
39.452726965
 40
9.999631345
 50
-215.145061467
 51
-109.997534190
  0
LINE
  8
Design
  6
CONTINUOUS
 62
1
 10
133.442
 20
45.209
 11
158.158
 21
80.32
  0
ARC
  8
Design
  6
CONTINUOUS
 62
1
 10
149.980525479
 20
86.076084484
 40
10.000179905
 50
-35.141527790
 51
44.997735275
  0
ENDSEC
  0
EOF
