  0
SECTION
  2
HEADER
  9
$ACADVER
  1
AC1009
  9
$EXTMIN
 10
0
 20
0
  9
$EXTMAX
 10
328.171
 20
231.199
  0
ENDSEC
  0
SECTION
  2
TABLES
  0
TABLE
  2
LAYER
 70
 1
  0
LAYER
  2
Design
 70
64
 62
7
  6
CONTINUOUS
  0
ENDTAB
  0
ENDSEC
  0
SECTION
  2
BLOCKS
  0
ENDSEC
  0
SECTION
  2
ENTITIES
  0
LINE
  8
Design
  6
CONTINUOUS
 62
1
 10
5.725
 20
16.122
 11
17.624
 21
41.982
  0
ARC
  8
Design
  6
CONTINUOUS
 62
1
 10
20.349672823
 20
40.727938266
 40
3.000327177
 50
0.001178895
 51
155.293193751
  0
LINE
  8
Design
  6
CONTINUOUS
 62
1
 10
23.35
 20
40.728
 11
23.35
 21
3
  0
ARC
  8
Design
  6
CONTINUOUS
 62
1
 10
26.349511942
 20
3.000008136
 40
2.999511942
 50
-179.999844582
 51
-80.007210023
  0
LINE
  8
Design
  6
CONTINUOUS
 62
1
 10
26.87
 20
0.046
 11
84.292
 21
10.171
  0
ARC
  8
Design
  6
CONTINUOUS
 62
1
 10
82.555755269
 20
20.019010741
 40
9.999893066
 50
-80.001271102
 51
59.998027098
  0
LINE
  8
Design
  6
CONTINUOUS
 62
1
 10
87.556
 20
28.679
 11
75.01
 21
35.922
  0
ARC
  8
Design
  6
CONTINUOUS
 62
1
 10
80.009834880
 20
44.582321804
 40
9.999976129
 50
-210.004565992
 51
-119.998986544
  0
LINE
  8
Design
  6
CONTINUOUS
 62
1
 10
71.35
 20
49.583
 11
89.722
 21
81.405
  0
ARC
  8
Design
  6
CONTINUOUS
 62
1
 10
81.062031003
 20
86.405698073
 40
10.000102212
 50
-30.004280346
 51
34.996355534
  0
LINE
  8
Design
  6
CONTINUOUS
 62
1
 10
89.254
 20
92.141
 11
71.813
 21
117.049
  0
ARC
  8
Design
  6
CONTINUOUS
 62
1
 10
63.621534680
 20
111.312964578
 40
10.000110322
 50
35.001453319
 51
115.001930940
  0
LINE
  8
Design
  6
CONTINUOUS
 62
1
 10
59.395
 20
120.376
 11
5.774
 21
95.372
  0
ARC
  8
Design
  6
CONTINUOUS
 62
1
 10
9.999950307
 20
86.308868634
 40
9.999950308
 50
114.998664124
 51
179.999247324
  0
LINE
  8
Design
  6
CONTINUOUS
 62
1
 10
0
 20
86.309
 11
0
 21
17.376
  0
ARC
  8
Design
  6
CONTINUOUS
 62
1
 10
2.999938224
 20
17.376459197
 40
2.999938259
 50
-179.991229800
 51
-24.718580426
  0
ARC
  8
Design
  6
CONTINUOUS
 62
1
 10
149.980525479
 20
86.076084484
 40
10.000179905
 50
-35.141527790
 51
44.997735275
  0
LINE
  8
Design
  6
CONTINUOUS
 62
1
 10
158.158
 20
80.32
 11
133.442
 21
45.209
  0
ARC
  8
Design
  6
CONTINUOUS
 62
1
 10
141.618670947
 20
39.452726965
 40
9.999631345
 50
144.854938533
 51
250.002465810
  0
LINE
  8
Design
  6
CONTINUOUS
 62
1
 10
138.199
 20
30.056
 11
176.341
 21
16.173
  0
ARC
  8
Design
  6
CONTINUOUS
 62
1
 10
179.760817454
 20
25.569801318
 40
9.999751318
 50
-109.998177330
 51
-40.000636300
  0
LINE
  8
Design
  6
CONTINUOUS
 62
1
 10
187.421
 20
19.142
 11
223.208
 21
61.79
  0
ARC
  8
Design
  6
CONTINUOUS
 62
1
 10
230.868213938
 20
55.362480102
 40
9.999594473
 50
84.998481675
 51
140.000714541
  0
LINE
  8
Design
  6
CONTINUOUS
 62
1
 10
231.74
 20
65.324
 11
317.299
 21
57.839
  0
ARC
  8
Design
  6
CONTINUOUS
 62
1
 10
318.170819266
 20
67.800957999
 40
10.000033800
 50
-95.001489008
 51
24.999020739
  0
LINE
  8
Design
  6
CONTINUOUS
 62
1
 10
327.234
 20
72.027
 11
305.977
 21
117.611
  0
ARC
  8
Design
  6
CONTINUOUS
 62
1
 10
296.914053923
 20
113.385357353
 40
9.999652363
 50
24.997515105
 51
79.996947383
  0
LINE
  8
Design
  6
CONTINUOUS
 62
1
 10
298.651
 20
123.233
 11
222.802
 21
136.608
  0
ARC
  8
Design
  6
CONTINUOUS
 62
1
 10
224.537746987
 20
146.455959065
 40
9.999755764
 50
-184.997151778
 51
-99.995971693
  0
LINE
  8
Design
  6
CONTINUOUS
 62
1
 10
214.576
 20
147.327
 11
220.963
 21
220.327
  0
ARC
  8
Design
  6
CONTINUOUS
 62
1
 10
211.000820230
 20
221.198751208
 40
10.000248794
 50
-5.000989784
 51
89.998970020
  0
LINE
  8
Design
  6
CONTINUOUS
 62
1
 10
211.001
 20
231.199
 11
138.12
 21
231.199
  0
ARC
  8
Design
  6
CONTINUOUS
 62
1
 10
138.120065248
 20
221.198981474
 40
10.000018526
 50
90.000373844
 51
145.005290922
  0
LINE
  8
Design
  6
CONTINUOUS
 62
1
 10
129.928
 20
226.934
 11
90.813
 21
171.072
  0
ARC
  8
Design
  6
CONTINUOUS
 62
1
 10
99.004444370
 20
165.335886405
 40
10.000138001
 50
144.998110943
 51
224.997739482
  0
LINE
  8
Design
  6
CONTINUOUS
 62
1
 10
91.933
 20
158.265
 11
157.052
 21
93.147
  0
ENDSEC
  0
EOF
