  0
SECTION
  2
HEADER
  9
$ACADVER
  1
AC1009
  9
$EXTMIN
 10
0
 20
0
  9
$EXTMAX
 10
979.216
 20
902.633
  0
ENDSEC
  0
SECTION
  2
TABLES
  0
TABLE
  2
LAYER
 70
 1
  0
LAYER
  2
Design
 70
64
 62
7
  6
CONTINUOUS
  0
ENDTAB
  0
ENDSEC
  0
SECTION
  2
BLOCKS
  0
ENDSEC
  0
SECTION
  2
ENTITIES
  0
ARC
  8
Design
  6
CONTINUOUS
 62
1
 10
793.522104991
 20
1044.463618227
 40
413.523911121
 50
-79.842495714
 51
-73.665567774
  0
ARC
  8
Design
  6
CONTINUOUS
 62
1
 10
868.157487796
 20
793.180867122
 40
151.396098783
 50
-74.025552757
 51
-62.591022324
  0
ARC
  8
Design
  6
CONTINUOUS
 62
1
 10
911.425209308
 20
710.381317640
 40
57.974290818
 50
-62.882349236
 51
-43.167720959
  0
ARC
  8
Design
  6
CONTINUOUS
 62
1
 10
925.980078735
 20
695.754244611
 40
37.358486951
 50
-42.077515929
 51
-19.281682391
  0
ARC
  8
Design
  6
CONTINUOUS
 62
1
 10
892.993083636
 20
706.031537680
 40
71.898700754
 50
-18.331804080
 51
-7.337566855
  0
ARC
  8
Design
  6
CONTINUOUS
 62
1
 10
1139.557301254
 20
673.925142484
 40
176.747201821
 50
167.898221955
 51
172.547826409
  0
ARC
  8
Design
  6
CONTINUOUS
 62
1
 10
1020.522811421
 20
698.908809961
 40
55.122768150
 50
150.819031989
 51
167.350436651
  0
ARC
  8
Design
  6
CONTINUOUS
 62
1
 10
1025.415522205
 20
695.055026184
 40
61.281326891
 50
144.531316275
 51
149.903533379
  0
ARC
  8
Design
  6
CONTINUOUS
 62
1
 10
959.216453638
 20
742.218212914
 40
20.000176950
 50
-35.464998580
 51
87.826422660
  0
ARC
  8
Design
  6
CONTINUOUS
 62
1
 10
946.342768149
 20
403.101670876
 40
359.360989157
 50
87.825983268
 51
91.861569171
  0
ARC
  8
Design
  6
CONTINUOUS
 62
1
 10
984.968938727
 20
-525.890210572
 40
1289.144887477
 50
92.236138068
 51
93.257288316
  0
ARC
  8
Design
  6
CONTINUOUS
 62
1
 10
904.746618501
 20
861.568988774
 40
100.638876208
 50
-95.644041064
 51
-86.026726879
  0
ARC
  8
Design
  6
CONTINUOUS
 62
1
 10
898.333263424
 20
794.206825396
 40
32.973431160
 50
-120.568555478
 51
-96.065701259
  0
ARC
  8
Design
  6
CONTINUOUS
 62
1
 10
906.439636178
 20
804.754647120
 40
46.206228095
 50
-143.346934459
 51
-122.572141944
  0
ARC
  8
Design
  6
CONTINUOUS
 62
1
 10
999.697957748
 20
876.010060595
 40
163.568140143
 50
-151.629824573
 51
-142.823784154
  0
ARC
  8
Design
  6
CONTINUOUS
 62
1
 10
830.971691778
 20
772.359682122
 40
35.881496161
 50
46.270366183
 51
78.549388918
  0
ARC
  8
Design
  6
CONTINUOUS
 62
1
 10
832.657031281
 20
773.929286462
 40
34.034950548
 50
80.806104511
 51
111.719421846
  0
ARC
  8
Design
  6
CONTINUOUS
 62
1
 10
846.561920230
 20
738.904394044
 40
71.719007153
 50
111.684566861
 51
128.654091140
  0
ARC
  8
Design
  6
CONTINUOUS
 62
1
 10
912.036786111
 20
654.602932667
 40
178.455880228
 50
128.164534631
 51
136.172837547
  0
ARC
  8
Design
  6
CONTINUOUS
 62
1
 10
1147.207295130
 20
426.307095479
 40
506.210291167
 50
135.963690811
 51
139.074333631
  0
LINE
  8
Design
  6
CONTINUOUS
 62
1
 10
764.735
 20
757.915
 11
746.18
 21
736.676
  0
ARC
  8
Design
  6
CONTINUOUS
 62
1
 10
452.967738470
 20
993.677300261
 40
389.901396057
 50
-45.197639188
 51
-41.234648274
  0
ARC
  8
Design
  6
CONTINUOUS
 62
1
 10
625.864303321
 20
818.606408517
 40
143.849057054
 50
-50.460528916
 51
-44.923311630
  0
ARC
  8
Design
  6
CONTINUOUS
 62
1
 10
704.706743547
 20
723.093382920
 40
19.998871745
 50
-175.234728194
 51
-50.453908946
  0
ARC
  8
Design
  6
CONTINUOUS
 62
1
 10
608.806426211
 20
715.072928247
 40
76.236250402
 50
4.784755312
 51
24.932219318
  0
ARC
  8
Design
  6
CONTINUOUS
 62
1
 10
318.541442292
 20
581.693973677
 40
395.678456151
 50
24.727900166
 51
27.531192857
  0
ARC
  8
Design
  6
CONTINUOUS
 62
1
 10
838.640686246
 20
852.463231355
 40
190.682695409
 50
-158.649839115
 51
-152.558669445
  0
ARC
  8
Design
  6
CONTINUOUS
 62
1
 10
740.643201783
 20
813.988462159
 40
85.403257811
 50
-172.877355599
 51
-158.754986209
  0
ARC
  8
Design
  6
CONTINUOUS
 62
1
 10
725.603834915
 20
811.512483019
 40
70.175441696
 50
-192.325919301
 51
-173.360778688
  0
ARC
  8
Design
  6
CONTINUOUS
 62
1
 10
749.463403344
 20
805.473816897
 40
94.777542167
 50
149.797069971
 51
167.186757206
  0
ARC
  8
Design
  6
CONTINUOUS
 62
1
 10
820.930410061
 20
763.896263104
 40
177.459014293
 50
143.035068315
 51
149.803245156
  0
ARC
  8
Design
  6
CONTINUOUS
 62
1
 10
663.160022319
 20
882.633640922
 40
19.999994464
 50
-36.965370045
 51
100.078725868
  0
ARC
  8
Design
  6
CONTINUOUS
 62
1
 10
677.155955911
 20
803.908278690
 40
99.959789449
 50
100.080400412
 51
120.211399738
  0
ARC
  8
Design
  6
CONTINUOUS
 62
1
 10
772.188181421
 20
637.794515948
 40
291.334218298
 50
119.923743010
 51
124.408810192
  0
ARC
  8
Design
  6
CONTINUOUS
 62
1
 10
2304.490309695
 20
-1613.635199644
 40
3014.729024214
 50
124.255264487
 51
124.755956971
  0
ARC
  8
Design
  6
CONTINUOUS
 62
1
 10
142.133663024
 20
1504.472838257
 40
779.791757788
 50
-57.492635416
 51
-55.318421157
  0
ARC
  8
Design
  6
CONTINUOUS
 62
1
 10
320.537126804
 20
1225.095026546
 40
448.310855613
 50
-61.697970374
 51
-57.532479385
  0
ARC
  8
Design
  6
CONTINUOUS
 62
1
 10
364.077965747
 20
1144.679323861
 40
356.864506108
 50
-67.439875818
 51
-61.731581700
  0
ARC
  8
Design
  6
CONTINUOUS
 62
1
 10
376.495334714
 20
1115.294566702
 40
324.964445964
 50
-74.310413231
 51
-67.474013481
  0
ARC
  8
Design
  6
CONTINUOUS
 62
1
 10
376.567985470
 20
1115.877497074
 40
325.506089826
 50
-81.849893457
 51
-74.350472546
  0
ARC
  8
Design
  6
CONTINUOUS
 62
1
 10
372.717845701
 20
1144.545931817
 40
354.430887994
 50
-85.936586317
 51
-81.890789732
  0
ARC
  8
Design
  6
CONTINUOUS
 62
1
 10
399.426466113
 20
769.062591963
 40
22.001188389
 50
94.153361614
 51
249.173000829
  0
ARC
  8
Design
  6
CONTINUOUS
 62
1
 10
642.690954046
 20
1408.874532120
 40
706.498762854
 50
-110.817726639
 51
-109.214348169
  0
ARC
  8
Design
  6
CONTINUOUS
 62
1
 10
95.149514150
 20
-159.918440792
 40
955.100897495
 50
69.763185814
 51
70.740935196
  0
ARC
  8
Design
  6
CONTINUOUS
 62
1
 10
307.305942137
 20
415.685216911
 40
341.643551116
 50
66.890042486
 51
69.756185265
  0
ARC
  8
Design
  6
CONTINUOUS
 62
1
 10
359.635457306
 20
538.200220171
 40
208.420801246
 50
62.108013896
 51
66.901994476
  0
ARC
  8
Design
  6
CONTINUOUS
 62
1
 10
389.921484596
 20
595.287481649
 40
143.797327892
 50
55.173099483
 51
62.132700607
  0
ARC
  8
Design
  6
CONTINUOUS
 62
1
 10
411.450778103
 20
626.197223049
 40
106.128746492
 50
45.802286646
 51
55.184149580
  0
ARC
  8
Design
  6
CONTINUOUS
 62
1
 10
425.906997669
 20
641.145870625
 40
85.333547438
 50
34.023664552
 51
45.763995918
  0
ARC
  8
Design
  6
CONTINUOUS
 62
1
 10
431.521502537
 20
645.133480597
 40
78.449170921
 50
20.624059799
 51
33.904292439
  0
ARC
  8
Design
  6
CONTINUOUS
 62
1
 10
424.548461967
 20
642.750493435
 40
85.814989250
 50
7.209446266
 51
20.473246351
  0
ARC
  8
Design
  6
CONTINUOUS
 62
1
 10
399.629332225
 20
639.774967622
 40
110.910666414
 50
-11.732021046
 51
7.118902976
  0
ARC
  8
Design
  6
CONTINUOUS
 62
1
 10
537.595941645
 20
611.121886055
 40
29.999888204
 50
168.265831434
 51
212.242119571
  0
ARC
  8
Design
  6
CONTINUOUS
 62
1
 10
478.403210038
 20
573.785734274
 40
39.984165016
 50
-16.529321238
 51
32.241757120
  0
ARC
  8
Design
  6
CONTINUOUS
 62
1
 10
462.188423649
 20
579.093773913
 40
57.041014223
 50
-39.864443260
 51
-17.006927629
  0
ARC
  8
Design
  6
CONTINUOUS
 62
1
 10
432.746967265
 20
603.106986399
 40
95.032036425
 50
-55.425130185
 51
-39.599441771
  0
ARC
  8
Design
  6
CONTINUOUS
 62
1
 10
406.434749780
 20
640.250205697
 40
140.548171774
 50
-67.337174832
 51
-55.185849134
  0
ARC
  8
Design
  6
CONTINUOUS
 62
1
 10
393.112452982
 20
671.031466265
 40
174.086477293
 50
-77.952911823
 51
-67.194529049
  0
ARC
  8
Design
  6
CONTINUOUS
 62
1
 10
390.547014929
 20
681.720045100
 40
185.075310727
 50
-88.625333586
 51
-77.866827951
  0
ARC
  8
Design
  6
CONTINUOUS
 62
1
 10
390.561165478
 20
674.575093600
 40
177.932145602
 50
-100.234387721
 51
-88.574693775
  0
ARC
  8
Design
  6
CONTINUOUS
 62
1
 10
388.256109868
 20
661.928326521
 40
165.077049061
 50
-113.260562257
 51
-100.226973711
  0
ARC
  8
Design
  6
CONTINUOUS
 62
1
 10
385.960211095
 20
656.160077856
 40
158.871061483
 50
-127.576243379
 51
-113.321393116
  0
ARC
  8
Design
  6
CONTINUOUS
 62
1
 10
392.572205060
 20
664.195191126
 40
169.271676578
 50
-142.253790314
 51
-127.691443540
  0
ARC
  8
Design
  6
CONTINUOUS
 62
1
 10
220.814704029
 20
532.134375018
 40
47.390612065
 50
36.876332490
 51
60.509664810
  0
ARC
  8
Design
  6
CONTINUOUS
 62
1
 10
232.022831080
 20
550.916831053
 40
25.529225445
 50
61.653944831
 51
94.481609990
  0
ARC
  8
Design
  6
CONTINUOUS
 62
1
 10
233.770003007
 20
540.099931567
 40
36.460600302
 50
95.890719327
 51
118.857354938
  0
ARC
  8
Design
  6
CONTINUOUS
 62
1
 10
260.603064434
 20
490.016635003
 40
93.277621930
 50
118.445377134
 51
128.623629521
  0
ARC
  8
Design
  6
CONTINUOUS
 62
1
 10
511.536798921
 20
172.052611179
 40
498.330403257
 50
128.344414706
 51
130.416903690
  0
ARC
  8
Design
  6
CONTINUOUS
 62
1
 10
38.773153536
 20
727.126448346
 40
230.787170526
 50
-54.076817633
 51
-49.568667793
  0
ARC
  8
Design
  6
CONTINUOUS
 62
1
 10
128.478838498
 20
602.760950116
 40
77.445787879
 50
-66.495380843
 51
-53.839192158
  0
ARC
  8
Design
  6
CONTINUOUS
 62
1
 10
143.756946759
 20
567.550855530
 40
39.063900165
 50
-89.913385434
 51
-66.448235102
  0
ARC
  8
Design
  6
CONTINUOUS
 62
1
 10
144.542517333
 20
563.639875628
 40
35.160382426
 50
-119.318020902
 51
-91.183984267
  0
ARC
  8
Design
  6
CONTINUOUS
 62
1
 10
160.066964642
 20
590.008430959
 40
65.756144517
 50
-139.999777056
 51
-119.862147030
  0
ARC
  8
Design
  6
CONTINUOUS
 62
1
 10
234.582477348
 20
654.106008145
 40
164.043887286
 50
-156.683195565
 51
-139.579403898
  0
ARC
  8
Design
  6
CONTINUOUS
 62
1
 10
56.386130520
 20
577.300900089
 40
29.999825951
 50
23.316228409
 51
158.983379830
  0
ARC
  8
Design
  6
CONTINUOUS
 62
1
 10
214.223835013
 20
516.657571105
 40
199.086650716
 50
158.982688472
 51
176.109377105
  0
ARC
  8
Design
  6
CONTINUOUS
 62
1
 10
582.643966032
 20
490.047751435
 40
568.465363632
 50
175.953106718
 51
178.306149257
  0
ARC
  8
Design
  6
CONTINUOUS
 62
1
 10
3588.519414935
 20
396.292679611
 40
3575.801970566
 50
178.228219883
 51
178.666407977
  0
ARC
  8
Design
  6
CONTINUOUS
 62
1
 10
-2252.347715127
 20
533.879090951
 40
2266.685765872
 50
-2.165698801
 51
-1.374336500
  0
ARC
  8
Design
  6
CONTINUOUS
 62
1
 10
-1221.679857366
 20
495.421561549
 40
1235.300909769
 50
-3.823863112
 51
-2.189745109
  0
ARC
  8
Design
  6
CONTINUOUS
 62
1
 10
-989.778133885
 20
480.205130844
 40
1002.900714900
 50
-6.076892964
 51
-3.840022190
  0
ARC
  8
Design
  6
CONTINUOUS
 62
1
 10
-910.313410253
 20
471.876185248
 40
923.000807471
 50
-8.762258587
 51
-6.084977390
  0
ARC
  8
Design
  6
CONTINUOUS
 62
1
 10
57.762084805
 20
316.521200736
 40
57.762041684
 50
165.205406008
 51
187.274689379
  0
ARC
  8
Design
  6
CONTINUOUS
 62
1
 10
49.236567578
 20
316.252759661
 40
49.277870624
 50
-171.779665674
 51
-148.784377870
  0
ARC
  8
Design
  6
CONTINUOUS
 62
1
 10
73.175027558
 20
331.381010450
 40
77.592783847
 50
-148.391776218
 51
-132.928231280
  0
ARC
  8
Design
  6
CONTINUOUS
 62
1
 10
141.553853132
 20
404.007275925
 40
177.342867066
 50
-133.123067563
 51
-125.448952370
  0
ARC
  8
Design
  6
CONTINUOUS
 62
1
 10
429.950307699
 20
805.501019313
 40
671.679390954
 50
-125.626368781
 51
-123.345427974
  0
ARC
  8
Design
  6
CONTINUOUS
 62
1
 10
-536.860336576
 20
-660.648994330
 40
1084.543979708
 50
55.015253332
 51
56.563431259
  0
ARC
  8
Design
  6
CONTINUOUS
 62
1
 10
-138.458554585
 20
-90.886685068
 40
389.308140186
 50
50.354677065
 51
54.976176681
  0
ARC
  8
Design
  6
CONTINUOUS
 62
1
 10
-57.805560978
 20
6.711883091
 40
262.697144435
 50
43.054328843
 51
50.318117550
  0
ARC
  8
Design
  6
CONTINUOUS
 62
1
 10
-24.751667562
 20
37.909127916
 40
217.246470599
 50
33.622646275
 51
42.993558117
  0
ARC
  8
Design
  6
CONTINUOUS
 62
1
 10
-18.997080098
 20
42.140239386
 40
210.112027424
 50
22.961627693
 51
33.530797562
  0
ARC
  8
Design
  6
CONTINUOUS
 62
1
 10
-43.178941857
 20
32.330827336
 40
236.205007206
 50
12.272773672
 51
22.864231742
  0
ARC
  8
Design
  6
CONTINUOUS
 62
1
 10
-107.862797108
 20
18.560067728
 40
302.337961410
 50
1.972597503
 51
12.217144915
  0
ARC
  8
Design
  6
CONTINUOUS
 62
1
 10
224.278492596
 20
29.999833627
 40
30.000276792
 50
-178.027061405
 51
-85.126881197
  0
ARC
  8
Design
  6
CONTINUOUS
 62
1
 10
209.666016747
 20
201.336964903
 40
201.959391121
 50
-85.125559649
 51
-75.942222061
  0
ARC
  8
Design
  6
CONTINUOUS
 62
1
 10
128.501388592
 20
531.863702407
 40
542.304399901
 50
-76.106107239
 51
-73.461557429
  0
ARC
  8
Design
  6
CONTINUOUS
 62
1
 10
-207.609077921
 20
1672.592394693
 40
1731.518517378
 50
-73.544712589
 51
-72.520350757
  0
LINE
  8
Design
  6
CONTINUOUS
 62
1
 10
312.482
 20
21.029
 11
344.4
 21
31.085
  0
ARC
  8
Design
  6
CONTINUOUS
 62
1
 10
371.444847209
 20
-54.755476073
 40
90.000061628
 50
102.831644479
 51
107.487522405
  0
ARC
  8
Design
  6
CONTINUOUS
 62
1
 10
297.543236242
 20
269.708973806
 40
242.774077005
 50
-77.169133026
 51
-63.028963107
  0
ARC
  8
Design
  6
CONTINUOUS
 62
1
 10
341.682682944
 20
182.114107248
 40
144.687903961
 50
-62.874873362
 51
-43.270889623
  0
ARC
  8
Design
  6
CONTINUOUS
 62
1
 10
354.063097194
 20
168.720724656
 40
126.499322833
 50
-42.697525972
 51
-23.132180726
  0
ARC
  8
Design
  6
CONTINUOUS
 62
1
 10
313.539105770
 20
185.078559451
 40
170.193722401
 50
-22.836829955
 51
-8.623011168
  0
ARC
  8
Design
  6
CONTINUOUS
 62
1
 10
171.108997853
 20
206.907696634
 40
314.286813303
 50
-8.664484058
 51
-0.802291325
  0
ARC
  8
Design
  6
CONTINUOUS
 62
1
 10
-591.467102307
 20
218.596958101
 40
1076.952303173
 50
-0.856046260
 51
1.448628225
  0
ARC
  8
Design
  6
CONTINUOUS
 62
1
 10
1223.841165427
 20
265.262540102
 40
738.955905398
 50
-181.722062169
 51
-178.492559431
  0
ARC
  8
Design
  6
CONTINUOUS
 62
1
 10
695.965810035
 20
281.930153370
 40
210.819583440
 50
168.098620668
 51
178.494499178
  0
ARC
  8
Design
  6
CONTINUOUS
 62
1
 10
586.404252021
 20
305.261701984
 40
98.801826209
 50
148.014832773
 51
168.235119917
  0
ARC
  8
Design
  6
CONTINUOUS
 62
1
 10
566.894321719
 20
315.986920499
 40
76.582643909
 50
104.156041174
 51
147.088999988
  0
ARC
  8
Design
  6
CONTINUOUS
 62
1
 10
467.528893380
 20
708.177631122
 40
327.999962636
 50
-75.768412087
 51
-59.652227690
  0
ARC
  8
Design
  6
CONTINUOUS
 62
1
 10
553.871159718
 20
560.698125690
 40
157.104698025
 50
-59.651335789
 51
-47.920803358
  0
ARC
  8
Design
  6
CONTINUOUS
 62
1
 10
597.702293107
 20
512.604056539
 40
92.035101902
 50
-48.108639772
 51
-38.947541994
  0
ARC
  8
Design
  6
CONTINUOUS
 62
1
 10
634.216545469
 20
483.498143124
 40
45.342050866
 50
-39.347951998
 51
-23.802170761
  0
ARC
  8
Design
  6
CONTINUOUS
 62
1
 10
656.329191323
 20
473.906076249
 40
21.239559620
 50
-24.201453715
 51
3.133266281
  0
ARC
  8
Design
  6
CONTINUOUS
 62
1
 10
661.535501845
 20
473.742268585
 40
16.056240423
 50
4.732608294
 51
39.628249857
  0
ARC
  8
Design
  6
CONTINUOUS
 62
1
 10
651.326113831
 20
464.648582994
 40
29.723565016
 50
40.577376329
 51
64.948593274
  0
ARC
  8
Design
  6
CONTINUOUS
 62
1
 10
630.434664607
 20
421.873806283
 40
77.324820039
 50
64.345445399
 51
77.869217640
  0
ARC
  8
Design
  6
CONTINUOUS
 62
1
 10
606.225015616
 20
315.447393017
 40
186.466852187
 50
77.468471196
 51
83.337508431
  0
ARC
  8
Design
  6
CONTINUOUS
 62
1
 10
630.179835728
 20
520.519763365
 40
19.999877551
 50
-132.714523750
 51
-96.663758314
  0
ARC
  8
Design
  6
CONTINUOUS
 62
1
 10
635.862022433
 20
526.674441272
 40
28.376470287
 50
-188.923348493
 51
-132.714411173
  0
ARC
  8
Design
  6
CONTINUOUS
 62
1
 10
661.097515664
 20
522.272588322
 40
53.991062392
 50
152.495078561
 51
170.615844576
  0
ARC
  8
Design
  6
CONTINUOUS
 62
1
 10
749.363079866
 20
477.754769605
 40
152.844842147
 50
145.617744643
 51
152.973860231
  0
ARC
  8
Design
  6
CONTINUOUS
 62
1
 10
2035.686540410
 20
-395.178983137
 40
1707.398855738
 50
145.104878129
 51
145.818399303
  0
ARC
  8
Design
  6
CONTINUOUS
 62
1
 10
431.224595780
 20
724.040511057
 40
248.860455124
 50
-34.920503104
 51
-29.982530827
  0
ARC
  8
Design
  6
CONTINUOUS
 62
1
 10
561.747642939
 20
649.090945595
 40
98.349777472
 50
-30.161617020
 51
-12.546045363
  0
ARC
  8
Design
  6
CONTINUOUS
 62
1
 10
677.270899902
 20
623.380937723
 40
19.999820827
 50
108.983624708
 51
167.449204625
  0
ARC
  8
Design
  6
CONTINUOUS
 62
1
 10
734.469437757
 20
457.146079701
 40
195.799993581
 50
103.210020708
 51
108.987062537
  0
ARC
  8
Design
  6
CONTINUOUS
 62
1
 10
708.078954286
 20
570.984450991
 40
78.943779642
 50
87.027291887
 51
103.443947942
  0
ARC
  8
Design
  6
CONTINUOUS
 62
1
 10
709.069310092
 20
601.606221042
 40
48.315569246
 50
66.617748270
 51
86.316904371
  0
ARC
  8
Design
  6
CONTINUOUS
 62
1
 10
695.496911299
 20
573.644570412
 40
79.378998644
 50
54.967244829
 51
65.635445491
  0
ARC
  8
Design
  6
CONTINUOUS
 62
1
 10
870.374838673
 20
823.142460814
 40
225.303601921
 50
-125.025461256
 51
-121.171607858
  0
ARC
  8
Design
  6
CONTINUOUS
 62
1
 10
788.023289388
 20
688.387287779
 40
67.382611576
 50
-120.566170604
 51
-106.000110134
  0
ARC
  8
Design
  6
CONTINUOUS
 62
1
 10
790.059263890
 20
699.200569374
 40
78.344878937
 50
-105.251603397
 51
-89.116714151
  0
ARC
  8
Design
  6
CONTINUOUS
 62
1
 10
788.687988063
 20
773.379826064
 40
152.536629934
 50
-89.031225874
 51
-77.257483090
  0
ARC
  8
Design
  6
CONTINUOUS
 62
1
 10
747.282676228
 20
961.944112626
 40
345.591668623
 50
-77.457441281
 51
-70.061736494
  0
ENDSEC
  0
EOF
