  0
SECTION
  2
HEADER
  9
$ACADVER
  1
AC1009
  9
$EXTMIN
 10
0
 20
0
  9
$EXTMAX
 10
225
 20
100
  0
ENDSEC
  0
SECTION
  2
TABLES
  0
TABLE
  2
LAYER
 70
 1
  0
LAYER
  2
Design
 70
64
 62
7
  6
CONTINUOUS
  0
ENDTAB
  0
ENDSEC
  0
SECTION
  2
BLOCKS
  0
ENDSEC
  0
SECTION
  2
ENTITIES
  0
ARC
  8
Design
  6
CONTINUOUS
 62
1
 10
10.000000000
 20
10.000000000
 40
10.000000000
 50
180.000000000
 51
270.000000000
  0
LINE
  8
Design
  6
CONTINUOUS
 62
1
 10
10
 20
0
 11
90
 21
0
  0
ARC
  8
Design
  6
CONTINUOUS
 62
1
 10
90.000000000
 20
10.000000000
 40
10.000000000
 50
-90.000000000
 51
0.000000000
  0
LINE
  8
Design
  6
CONTINUOUS
 62
1
 10
100
 20
10
 11
100
 21
90
  0
ARC
  8
Design
  6
CONTINUOUS
 62
1
 10
90.000000000
 20
90.000000000
 40
10.000000000
 50
0.000000000
 51
90.000000000
  0
LINE
  8
Design
  6
CONTINUOUS
 62
1
 10
90
 20
100
 11
10
 21
100
  0
ARC
  8
Design
  6
CONTINUOUS
 62
1
 10
10.000000000
 20
90.000000000
 40
10.000000000
 50
90.000000000
 51
180.000000000
  0
LINE
  8
Design
  6
CONTINUOUS
 62
1
 10
0
 20
90
 11
0
 21
10
  0
CIRCLE
  8
Design
  6
CONTINUOUS
 62
1
 10
50.000000000
 20
50.000019073
 40
25.000019073
  0
ARC
  8
Design
  6
CONTINUOUS
 62
1
 10
174.894802491
 20
-21.805867470
 40
96.805924628
 50
89.937737545
 51
99.121078485
  0
ARC
  8
Design
  6
CONTINUOUS
 62
1
 10
171.596664471
 20
-2.641648522
 40
77.361509970
 50
98.959253660
 51
109.627223298
  0
ARC
  8
Design
  6
CONTINUOUS
 62
1
 10
161.901677455
 20
23.808752982
 40
49.192013164
 50
109.339506952
 51
123.782307880
  0
ARC
  8
Design
  6
CONTINUOUS
 62
1
 10
148.680593362
 20
43.192528256
 40
25.730492068
 50
123.313231730
 51
145.611893188
  0
ARC
  8
Design
  6
CONTINUOUS
 62
1
 10
139.096110176
 20
49.784923676
 40
14.097750882
 50
145.721513820
 51
179.125857464
  0
ARC
  8
Design
  6
CONTINUOUS
 62
1
 10
139.096110176
 20
50.215076324
 40
14.097750882
 50
-179.125857464
 51
-145.721513820
  0
ARC
  8
Design
  6
CONTINUOUS
 62
1
 10
148.680446175
 20
56.807321769
 40
25.730285899
 50
-145.611983669
 51
-123.313141248
  0
ARC
  8
Design
  6
CONTINUOUS
 62
1
 10
161.902063447
 20
76.192019142
 40
49.192869547
 50
-123.782181495
 51
-109.339633337
  0
ARC
  8
Design
  6
CONTINUOUS
 62
1
 10
171.596324570
 20
102.640314377
 40
77.360139169
 50
-109.627318089
 51
-98.959158869
  0
ARC
  8
Design
  6
CONTINUOUS
 62
1
 10
174.894912960
 20
121.807261962
 40
96.807318999
 50
-99.121012207
 51
-89.937803824
  0
ARC
  8
Design
  6
CONTINUOUS
 62
1
 10
175.105040002
 20
121.807855746
 40
96.807912732
 50
-90.062167955
 51
-80.879016014
  0
ARC
  8
Design
  6
CONTINUOUS
 62
1
 10
178.403721097
 20
102.640135131
 40
77.359954998
 50
-81.040853867
 51
-70.372669175
  0
ARC
  8
Design
  6
CONTINUOUS
 62
1
 10
188.097893834
 20
76.192104595
 40
49.192964325
 50
-70.660352676
 51
-56.217832492
  0
ARC
  8
Design
  6
CONTINUOUS
 62
1
 10
201.319293068
 20
56.807587465
 40
25.730651148
 50
-56.686698456
 51
-34.388176627
  0
ARC
  8
Design
  6
CONTINUOUS
 62
1
 10
210.903935818
 20
50.215061754
 40
14.097704670
 50
-34.278542534
 51
-0.874086181
  0
ARC
  8
Design
  6
CONTINUOUS
 62
1
 10
210.903874858
 20
49.784918936
 40
14.097765918
 50
0.874160872
 51
34.278467843
  0
ARC
  8
Design
  6
CONTINUOUS
 62
1
 10
201.319671209
 20
43.192797838
 40
25.730121477
 50
34.387944170
 51
56.686930913
  0
ARC
  8
Design
  6
CONTINUOUS
 62
1
 10
188.097838910
 20
23.807785537
 40
49.193086183
 50
56.217850475
 51
70.660334692
  0
ARC
  8
Design
  6
CONTINUOUS
 62
1
 10
178.403678098
 20
-2.640303904
 40
77.360128408
 50
70.372681167
 51
81.040841875
  0
ARC
  8
Design
  6
CONTINUOUS
 62
1
 10
175.105104634
 20
-21.807039874
 40
96.807096931
 50
80.878977238
 51
90.062206732
  0
ENDSEC
  0
EOF
