  0
SECTION
  2
HEADER
  9
$ACADVER
  1
AC1009
  9
$EXTMIN
 10
0
 20
0
  9
$EXTMAX
 10
311.5
 20
404.676
  0
ENDSEC
  0
SECTION
  2
TABLES
  0
TABLE
  2
LAYER
 70
 1
  0
LAYER
  2
Design
 70
64
 62
7
  6
CONTINUOUS
  0
ENDTAB
  0
ENDSEC
  0
SECTION
  2
BLOCKS
  0
ENDSEC
  0
SECTION
  2
ENTITIES
  0
LINE
  8
Design
  6
CONTINUOUS
 62
2
 10
112.667
 20
89.176
 11
211.333
 21
89.176
  0
LINE
  8
Design
  6
CONTINUOUS
 62
2
 10
12.577
 20
89.676
 11
111.423
 21
89.676
  0
LINE
  8
Design
  6
CONTINUOUS
 62
2
 10
12
 20
89.778
 11
12
 21
289.676
  0
LINE
  8
Design
  6
CONTINUOUS
 62
2
 10
113.732
 20
290.176
 11
211.736
 21
290.176
  0
LINE
  8
Design
  6
CONTINUOUS
 62
2
 10
212.577
 20
289.676
 11
311.5
 21
289.676
  0
LINE
  8
Design
  6
CONTINUOUS
 62
2
 10
112
 20
90.331
 11
112
 21
291.176
  0
LINE
  8
Design
  6
CONTINUOUS
 62
2
 10
212
 20
89.676
 11
212
 21
288.677
  0
LINE
  8
Design
  6
CONTINUOUS
 62
1
 10
311.5
 20
89.676
 11
311.5
 21
289.676
  0
LINE
  8
Design
  6
CONTINUOUS
 62
1
 10
0
 20
91.894
 11
0
 21
287.56
  0
LINE
  8
Design
  6
CONTINUOUS
 62
1
 10
12
 20
289.676
 11
0
 21
287.56
  0
LINE
  8
Design
  6
CONTINUOUS
 62
1
 10
12.577
 20
89.676
 11
0
 21
91.894
  0
LINE
  8
Design
  6
CONTINUOUS
 62
1
 10
212
 20
89.676
 11
250
 21
89.676
  0
LINE
  8
Design
  6
CONTINUOUS
 62
2
 10
113.732
 20
290.176
 11
158.299
 21
367.369
  0
LINE
  8
Design
  6
CONTINUOUS
 62
1
 10
211.619
 20
290.836
 11
162
 21
376.779
  0
LINE
  8
Design
  6
CONTINUOUS
 62
1
 10
311.5
 20
289.676
 11
307.5
 21
296.604
  0
LINE
  8
Design
  6
CONTINUOUS
 62
1
 10
307.5
 20
296.604
 11
304.768
 21
297.337
  0
LINE
  8
Design
  6
CONTINUOUS
 62
1
 10
304.768
 20
297.337
 11
260.884
 21
373.346
  0
LINE
  8
Design
  6
CONTINUOUS
 62
1
 10
212
 20
288.677
 11
260.884
 21
373.346
  0
LINE
  8
Design
  6
CONTINUOUS
 62
1
 10
212
 20
288.677
 11
211.619
 21
290.836
  0
LINE
  8
Design
  6
CONTINUOUS
 62
1
 10
112
 20
291.176
 11
112
 21
387.676
  0
LINE
  8
Design
  6
CONTINUOUS
 62
2
 10
112
 20
339.676
 11
12
 21
339.676
  0
LINE
  8
Design
  6
CONTINUOUS
 62
1
 10
12
 20
387.676
 11
12
 21
289.676
  0
LINE
  8
Design
  6
CONTINUOUS
 62
1
 10
13.312
 20
404.676
 11
110.688
 21
404.676
  0
LINE
  8
Design
  6
CONTINUOUS
 62
1
 10
12
 20
387.676
 11
13.312
 21
404.676
  0
LINE
  8
Design
  6
CONTINUOUS
 62
1
 10
112
 20
387.676
 11
110.688
 21
404.676
  0
LINE
  8
Design
  6
CONTINUOUS
 62
1
 10
66.33
 20
330.176
 11
74
 21
330.176
  0
LINE
  8
Design
  6
CONTINUOUS
 62
1
 10
74
 20
324.176
 11
50
 21
324.176
  0
LINE
  8
Design
  6
CONTINUOUS
 62
1
 10
50
 20
330.176
 11
57.67
 21
330.176
  0
ARC
  8
Design
  6
CONTINUOUS
 62
1
 10
62.000000000
 20
327.676300049
 40
4.999739978
 50
29.997749987
 51
150.002250013
  0
ARC
  8
Design
  6
CONTINUOUS
 62
1
 10
50.000034332
 20
327.176000000
 40
3.000000000
 50
90.000655698
 51
269.999344302
  0
ARC
  8
Design
  6
CONTINUOUS
 62
1
 10
74.000030518
 20
327.176000000
 40
3.000000000
 50
-90.000582843
 51
90.000582843
  0
LINE
  8
Design
  6
CONTINUOUS
 62
1
 10
66.33
 20
349.176
 11
74
 21
349.176
  0
LINE
  8
Design
  6
CONTINUOUS
 62
1
 10
74
 20
355.176
 11
50
 21
355.176
  0
LINE
  8
Design
  6
CONTINUOUS
 62
1
 10
50
 20
349.176
 11
57.67
 21
349.176
  0
ARC
  8
Design
  6
CONTINUOUS
 62
1
 10
62.000000000
 20
351.676269531
 40
5.000024773
 50
-149.996597445
 51
-30.003402555
  0
ARC
  8
Design
  6
CONTINUOUS
 62
1
 10
50.000045776
 20
352.176000000
 40
3.000000000
 50
-269.999125736
 51
-90.000874264
  0
ARC
  8
Design
  6
CONTINUOUS
 62
1
 10
74.000045776
 20
352.176000000
 40
3.000000000
 50
-90.000874264
 51
90.000874264
  0
LINE
  8
Design
  6
CONTINUOUS
 62
1
 10
162
 20
376.779
 11
157
 21
368.119
  0
LINE
  8
Design
  6
CONTINUOUS
 62
1
 10
157
 20
368.119
 11
158.732
 21
367.119
  0
LINE
  8
Design
  6
CONTINUOUS
 62
1
 10
112
 20
311.176
 11
150.967
 21
378.669
  0
ARC
  8
Design
  6
CONTINUOUS
 62
1
 10
152.750039054
 20
360.757592818
 40
17.999937097
 50
60.000027943
 51
95.684932631
  0
LINE
  8
Design
  6
CONTINUOUS
 62
1
 10
113.732
 20
290.176
 11
112
 21
291.176
  0
LINE
  8
Design
  6
CONTINUOUS
 62
2
 10
62
 20
89.676
 11
62
 21
324.176
  0
LINE
  8
Design
  6
CONTINUOUS
 62
2
 10
62
 20
332.676
 11
62
 21
339.676
  0
LINE
  8
Design
  6
CONTINUOUS
 62
2
 10
62
 20
339.676
 11
62
 21
346.676
  0
LINE
  8
Design
  6
CONTINUOUS
 62
2
 10
62
 20
355.176
 11
62
 21
404.676
  0
LINE
  8
Design
  6
CONTINUOUS
 62
2
 10
211.333
 20
89.176
 11
195.966
 21
62.56
  0
LINE
  8
Design
  6
CONTINUOUS
 62
1
 10
111.9
 20
90.504
 11
162
 21
3.729
  0
LINE
  8
Design
  6
CONTINUOUS
 62
1
 10
218.578
 20
73.725
 11
177.456
 21
2.5
  0
LINE
  8
Design
  6
CONTINUOUS
 62
1
 10
162
 20
3.729
 11
171.416
 21
0.302
  0
ARC
  8
Design
  6
CONTINUOUS
 62
1
 10
173.126296485
 20
5.000003290
 40
4.999634884
 50
-110.003910467
 51
-30.002459326
  0
LINE
  8
Design
  6
CONTINUOUS
 62
1
 10
211.333
 20
89.176
 11
218.578
 21
73.725
  0
LINE
  8
Design
  6
CONTINUOUS
 62
1
 10
211.333
 20
89.176
 11
212
 21
89.676
  0
LINE
  8
Design
  6
CONTINUOUS
 62
1
 10
244
 20
89.676
 11
245.788
 21
69.241
  0
ARC
  8
Design
  6
CONTINUOUS
 62
1
 10
250.769078937
 20
69.676040785
 40
5.000040786
 50
-175.008529103
 51
-90.000904543
  0
LINE
  8
Design
  6
CONTINUOUS
 62
1
 10
250.769
 20
64.676
 11
273.231
 21
64.676
  0
ARC
  8
Design
  6
CONTINUOUS
 62
1
 10
273.230926787
 20
69.676129968
 40
5.000129969
 50
-89.999161062
 51
-5.003910064
  0
LINE
  8
Design
  6
CONTINUOUS
 62
1
 10
278.212
 20
69.24
 11
280
 21
89.676
  0
LINE
  8
Design
  6
CONTINUOUS
 62
1
 10
12.577
 20
89.676
 11
62
 21
4.074
  0
LINE
  8
Design
  6
CONTINUOUS
 62
1
 10
62
 20
4.074
 11
111.9
 21
90.504
  0
LINE
  8
Design
  6
CONTINUOUS
 62
1
 10
246
 20
89.676
 11
246
 21
114.676
  0
LINE
  8
Design
  6
CONTINUOUS
 62
2
 10
246
 20
114.676
 11
278
 21
114.676
  0
LINE
  8
Design
  6
CONTINUOUS
 62
1
 10
278
 20
114.676
 11
278
 21
89.676
  0
LINE
  8
Design
  6
CONTINUOUS
 62
1
 10
274
 20
89.676
 11
311.5
 21
89.676
  0
LINE
  8
Design
  6
CONTINUOUS
 62
2
 10
250
 20
90.176
 11
274
 21
90.176
  0
LINE
  8
Design
  6
CONTINUOUS
 62
1
 10
274
 20
89.676
 11
274
 21
90.676
  0
LINE
  8
Design
  6
CONTINUOUS
 62
1
 10
250
 20
89.676
 11
250
 21
90.676
  0
LINE
  8
Design
  6
CONTINUOUS
 62
1
 10
195.966
 20
62.56
 11
193.216
 21
57.797
  0
LINE
  8
Design
  6
CONTINUOUS
 62
1
 10
193.216
 20
57.797
 11
193.582
 21
56.431
  0
LINE
  8
Design
  6
CONTINUOUS
 62
1
 10
193.582
 20
56.431
 11
181.582
 21
35.647
  0
LINE
  8
Design
  6
CONTINUOUS
 62
1
 10
177.466
 20
30.517
 11
180.216
 21
35.281
  0
LINE
  8
Design
  6
CONTINUOUS
 62
1
 10
180.216
 20
35.281
 11
181.582
 21
35.647
  0
LINE
  8
Design
  6
CONTINUOUS
 62
2
 10
177.466
 20
30.517
 11
162
 21
3.729
  0
ENDSEC
  0
EOF
