  0
SECTION
  2
HEADER
  9
$ACADVER
  1
AC1009
  9
$EXTMIN
 10
0
 20
0
  9
$EXTMAX
 10
220
 20
136
  0
ENDSEC
  0
SECTION
  2
TABLES
  0
TABLE
  2
LAYER
 70
 1
  0
LAYER
  2
Sample
 70
64
 62
7
  6
CONTINUOUS
  0
ENDTAB
  0
ENDSEC
  0
SECTION
  2
BLOCKS
  0
ENDSEC
  0
SECTION
  2
ENTITIES
  0
ARC
  8
Sample
  6
CONTINUOUS
 62
1
 10
108.310779473
 20
43.600137038
 40
92.400078936
 50
75.249371343
 51
90.123880084
  0
ARC
  8
Sample
  6
CONTINUOUS
 62
1
 10
114.124853728
 20
64.199429100
 40
71.000342642
 50
57.806915584
 51
75.554105928
  0
ARC
  8
Sample
  6
CONTINUOUS
 62
1
 10
128.627337415
 20
86.678888677
 40
44.251376050
 50
33.817553866
 51
58.190640109
  0
ARC
  8
Sample
  6
CONTINUOUS
 62
1
 10
141.917035234
 20
95.688984469
 40
28.195680164
 50
0.632020174
 51
33.636028217
  0
ARC
  8
Sample
  6
CONTINUOUS
 62
1
 10
141.916684671
 20
96.311123606
 40
28.196031897
 50
-33.635816474
 51
-0.632231916
  0
ARC
  8
Sample
  6
CONTINUOUS
 62
1
 10
128.627393550
 20
105.321053186
 40
44.251297056
 50
-58.190662198
 51
-33.817531777
  0
ARC
  8
Sample
  6
CONTINUOUS
 62
1
 10
114.125116252
 20
127.799961895
 40
70.999687402
 50
-75.554188481
 51
-57.806833030
  0
ARC
  8
Sample
  6
CONTINUOUS
 62
1
 10
108.310891982
 20
148.398986313
 40
92.399202532
 50
-90.123951025
 51
-75.249300402
  0
ARC
  8
Sample
  6
CONTINUOUS
 62
1
 10
107.911138649
 20
148.399224988
 40
92.399441139
 50
-104.750680284
 51
-89.876068289
  0
ARC
  8
Sample
  6
CONTINUOUS
 62
1
 10
102.097046448
 20
127.800339326
 40
71.000093487
 50
-122.193115807
 51
-104.445862682
  0
ARC
  8
Sample
  6
CONTINUOUS
 62
1
 10
87.596024930
 20
105.319689145
 40
44.250885600
 50
-146.184237130
 51
-121.811829519
  0
ARC
  8
Sample
  6
CONTINUOUS
 62
1
 10
74.304692789
 20
96.312465242
 40
28.195424232
 50
-179.365027958
 51
-146.360087315
  0
ARC
  8
Sample
  6
CONTINUOUS
 62
1
 10
74.304708871
 20
95.687529799
 40
28.195440368
 50
146.360097029
 51
179.365018243
  0
ARC
  8
Sample
  6
CONTINUOUS
 62
1
 10
87.596032555
 20
86.680302959
 40
44.250896329
 50
121.811832519
 51
146.184234130
  0
ARC
  8
Sample
  6
CONTINUOUS
 62
1
 10
102.097059550
 20
64.199630279
 40
71.000126190
 50
104.445866802
 51
122.193111687
  0
ARC
  8
Sample
  6
CONTINUOUS
 62
1
 10
107.911124916
 20
43.600882020
 40
92.399334162
 50
89.876059630
 51
104.750688943
  0
ARC
  8
Sample
  6
CONTINUOUS
 62
1
 10
130.000000000
 20
10.000000000
 40
10.000000000
 50
-180.000000000
 51
-90.000000000
  0
LINE
  8
Sample
  6
CONTINUOUS
 62
1
 10
120
 20
10
 11
120
 21
40
  0
ARC
  8
Sample
  6
CONTINUOUS
 62
1
 10
130.000000000
 20
40.000000000
 40
10.000000000
 50
90.000000000
 51
180.000000000
  0
LINE
  8
Sample
  6
CONTINUOUS
 62
1
 10
130
 20
50
 11
210
 21
50
  0
ARC
  8
Sample
  6
CONTINUOUS
 62
1
 10
210.000000000
 20
40.000000000
 40
10.000000000
 50
0.000000000
 51
90.000000000
  0
LINE
  8
Sample
  6
CONTINUOUS
 62
1
 10
220
 20
40
 11
220
 21
10
  0
ARC
  8
Sample
  6
CONTINUOUS
 62
1
 10
210.000000000
 20
10.000000000
 40
10.000000000
 50
-90.000000000
 51
0.000000000
  0
LINE
  8
Sample
  6
CONTINUOUS
 62
1
 10
210
 20
0
 11
130
 21
0
  0
CIRCLE
  8
Sample
  6
CONTINUOUS
 62
1
 10
50.000000000
 20
26.684646606
 40
11.999646606
  0
ARC
  8
Sample
  6
CONTINUOUS
 62
1
 10
10.000000000
 20
10.000000000
 40
10.000000000
 50
-180.000000000
 51
-90.000000000
  0
LINE
  8
Sample
  6
CONTINUOUS
 62
1
 10
0
 20
10
 11
0
 21
40
  0
ARC
  8
Sample
  6
CONTINUOUS
 62
1
 10
10.000000000
 20
40.000000000
 40
10.000000000
 50
90.000000000
 51
180.000000000
  0
LINE
  8
Sample
  6
CONTINUOUS
 62
1
 10
10
 20
50
 11
90
 21
50
  0
ARC
  8
Sample
  6
CONTINUOUS
 62
1
 10
90.000000000
 20
40.000000000
 40
10.000000000
 50
0.000000000
 51
90.000000000
  0
LINE
  8
Sample
  6
CONTINUOUS
 62
1
 10
100
 20
40
 11
100
 21
10
  0
ARC
  8
Sample
  6
CONTINUOUS
 62
1
 10
90.000000000
 20
10.000000000
 40
10.000000000
 50
-90.000000000
 51
0.000000000
  0
LINE
  8
Sample
  6
CONTINUOUS
 62
1
 10
90
 20
0
 11
10
 21
0
  0
ENDSEC
  0
EOF
